<?xml version="1.0" standalone="no"?>
<!DOCTYPE svg PUBLIC "-//W3C//DTD SVG 20010904//EN"
 "http://www.w3.org/TR/2001/REC-SVG-20010904/DTD/svg10.dtd">
<svg version="1.0" xmlns="http://www.w3.org/2000/svg"
 width="250.000000pt" height="176.000000pt" viewBox="0 0 250.000000 176.000000"
 preserveAspectRatio="xMidYMid meet">
<metadata>
Created by potrace 1.10, written by Peter Selinger 2001-2011
</metadata>
<g transform="translate(0.000000,176.000000) scale(0.100000,-0.100000)"
fill="#000000" stroke="none">
<path d="M1280 1388 c0 -5 5 -8 10 -8 15 0 13 -97 -2 -103 -7 -3 3 -5 22 -5
19 0 29 2 23 5 -18 7 -16 53 2 53 7 0 19 -8 24 -17 9 -16 10 -14 11 8 0 23 -3
26 -25 21 -20 -3 -25 0 -25 17 0 16 6 21 24 21 14 0 28 -4 31 -10 9 -15 25
-12 25 4 0 10 -17 15 -60 18 -33 1 -60 0 -60 -4z"/>
<path d="M1064 1383 c-20 -4 -19 -6 12 -37 35 -35 44 -70 22 -79 -7 -3 2 -6
20 -6 17 -1 32 4 32 9 0 6 -4 10 -10 10 -19 0 -10 43 16 77 l25 33 -28 -1
c-15 0 -23 -3 -16 -5 9 -4 9 -11 1 -30 -14 -30 -19 -30 -37 -3 -11 18 -11 23
1 30 14 10 3 10 -38 2z"/>
<path d="M1430 1379 c0 -4 4 -9 9 -11 5 -1 7 -24 4 -50 -4 -34 -10 -48 -21
-48 -24 0 -11 -6 28 -14 21 -3 30 -3 21 3 -20 13 -5 109 17 114 10 2 0 5 -20
8 -21 3 -38 2 -38 -2z"/>
<path d="M865 1340 c-23 -25 -8 -45 40 -54 21 -4 35 -13 35 -22 0 -20 -29 -29
-51 -16 -25 16 -28 15 -22 -6 4 -15 11 -18 40 -13 66 11 72 63 9 75 -40 8 -55
24 -35 37 19 12 25 11 43 -6 20 -20 25 -19 19 5 -7 27 -54 27 -78 0z"/>
<path d="M1555 1312 c-20 -29 -42 -52 -48 -52 -15 0 14 -20 30 -20 6 0 9 8 6
20 -4 16 0 20 21 20 29 0 47 -27 27 -40 -9 -5 -5 -9 11 -13 34 -10 42 -8 30 6
-5 6 -13 32 -17 57 -12 77 -19 79 -60 22z"/>
<path d="M1690 1331 c0 -5 4 -11 10 -13 13 -4 -12 -87 -31 -99 -8 -5 -9 -9 -2
-9 6 0 19 -3 29 -7 12 -4 15 -3 10 6 -10 16 3 93 15 85 5 -3 9 -28 9 -57 l0
-51 46 44 46 45 -16 -39 c-9 -21 -16 -40 -16 -41 0 -2 -8 -5 -17 -7 -13 -3 -8
-7 15 -15 21 -8 30 -8 26 -2 -10 17 26 99 44 100 9 0 4 5 -12 11 -27 10 -32 8
-62 -24 l-32 -35 -6 47 c-5 37 -11 49 -31 58 -14 6 -25 8 -25 3z"/>
<path d="M725 1308 c-27 -15 -35 -28 -35 -59 0 -60 76 -82 117 -34 27 31 24
59 -9 88 -23 20 -44 21 -73 5z m56 -19 c14 -14 19 -30 17 -52 -2 -26 -8 -33
-30 -35 -47 -6 -80 74 -40 97 24 15 29 14 53 -10z"/>
<path d="M604 1262 c-28 -4 -58 -37 -51 -56 4 -9 22 -16 49 -18 30 -2 44 -8
46 -20 4 -20 -35 -35 -51 -19 -18 18 -29 13 -18 -8 13 -23 52 -18 77 11 26 28
7 52 -45 56 -27 2 -41 8 -41 17 0 19 38 29 55 15 8 -7 15 -9 15 -4 0 18 -16
29 -36 26z"/>
<path d="M1907 1249 c9 -9 6 -23 -10 -55 -11 -24 -26 -44 -31 -44 -17 -1 57
-39 75 -40 26 0 44 27 30 44 -10 11 -8 16 9 21 31 10 21 36 -25 62 -43 24 -66
30 -48 12z m60 -35 c8 -20 -9 -36 -30 -28 -13 5 -14 10 -6 25 12 23 28 25 36
3z m-19 -62 c3 -18 -1 -22 -22 -22 -27 0 -31 7 -20 35 9 23 38 14 42 -13z"/>
<path d="M443 1180 c-50 -29 -70 -46 -39 -34 9 3 23 -10 40 -37 20 -35 23 -46
13 -58 -7 -8 11 -2 38 14 67 38 69 40 56 62 -10 17 -10 16 -11 -5 0 -14 -9
-27 -25 -34 -21 -10 -27 -8 -39 8 -17 22 -2 37 27 28 16 -5 17 -3 6 14 -11 17
-15 18 -26 6 -19 -19 -29 -18 -37 3 -9 22 21 45 46 37 13 -4 16 -1 12 10 -3 9
-7 16 -8 16 0 0 -25 -14 -53 -30z"/>
<path d="M2054 1175 c8 -21 -35 -96 -51 -90 -24 9 -13 -12 12 -23 33 -15 36
-15 29 2 -3 8 5 33 18 55 22 37 26 39 43 27 26 -19 13 -50 -19 -44 -22 5 -23
3 -14 -35 10 -46 16 -57 28 -57 5 0 4 14 -1 32 -12 45 -12 48 11 48 25 0 36
25 20 45 -6 8 -28 23 -47 35 -29 17 -34 18 -29 5z"/>
<path d="M330 1109 c-16 -13 -19 -19 -8 -15 12 3 26 -6 43 -29 22 -28 24 -37
15 -54 -6 -12 -19 -21 -30 -21 -23 0 -75 64 -65 81 4 6 -5 3 -21 -7 -18 -13
-23 -20 -13 -22 7 -1 25 -18 38 -37 28 -41 58 -45 89 -12 27 29 27 41 1 78
-11 16 -18 36 -15 44 8 21 -4 18 -34 -6z"/>
<path d="M2204 1082 c10 -17 -45 -93 -64 -87 -8 3 1 -8 20 -25 54 -47 66 -52
81 -33 12 15 12 16 -4 10 -10 -4 -28 0 -42 9 -20 13 -23 20 -14 35 13 25 28
24 37 -2 l8 -20 19 21 c15 17 16 21 5 20 -40 -6 -54 12 -28 38 9 9 16 8 30 -5
10 -9 18 -22 18 -30 0 -15 16 -18 24 -4 3 4 -5 17 -17 28 -31 29 -83 60 -73
45z"/>
<path d="M145 965 c-32 -31 -33 -78 -3 -99 25 -18 64 -21 73 -6 3 6 16 8 29 4
15 -3 28 2 41 17 20 22 20 22 -2 10 -31 -16 -32 -15 -26 23 11 67 -63 101
-112 51z m77 -12 c21 -18 24 -53 6 -71 -28 -28 -88 0 -88 43 0 43 47 60 82 28z"/>
<path d="M701 956 c-51 -28 -66 -106 -32 -162 13 -21 35 -38 68 -50 62 -23 73
-32 73 -60 0 -52 -71 -51 -84 1 -6 22 -12 25 -47 25 l-42 0 6 -36 c12 -74 50
-104 132 -104 35 0 52 6 77 29 28 25 32 35 36 93 4 57 1 68 -19 91 -13 15 -49
35 -79 45 -46 16 -55 23 -55 43 0 33 46 34 60 1 8 -19 16 -22 46 -20 20 2 37
6 38 11 5 30 -3 53 -28 78 -25 24 -37 29 -78 29 -26 -1 -59 -7 -72 -14z m123
-41 c24 -36 19 -41 -10 -12 -15 15 -31 24 -37 20 -6 -3 -7 -1 -3 5 12 19 33
14 50 -13z m-91 9 c9 -9 -27 -41 -41 -36 -10 3 -9 9 4 23 18 20 27 23 37 13z
m-28 -64 c-7 -12 44 -57 58 -52 5 1 15 -3 23 -9 8 -6 14 -8 14 -3 0 5 5 2 10
-6 5 -8 15 -15 22 -15 7 0 14 -13 15 -28 1 -16 7 -35 13 -42 9 -10 8 -20 -1
-37 -7 -13 -12 -26 -11 -30 1 -4 -5 -5 -13 -2 -16 6 -21 24 -7 24 5 0 8 14 8
30 0 20 -5 30 -14 30 -9 0 -13 3 -9 6 9 10 -21 36 -33 29 -6 -3 -13 1 -16 9
-3 9 -14 16 -23 16 -26 0 -61 45 -54 69 3 12 10 21 15 21 5 0 6 -5 3 -10z m9
-221 c-3 -5 1 -9 9 -9 7 0 14 -7 14 -15 0 -18 -2 -18 -28 -5 -11 7 -18 20 -17
35 2 18 5 21 15 13 7 -6 10 -14 7 -19z m121 -19 c3 -5 0 -10 -7 -11 -7 0 -28
-2 -45 -5 -18 -2 -33 0 -33 5 0 6 15 12 33 14 17 2 35 5 39 5 4 1 10 -2 13 -8z"/>
<path d="M1280 770 l0 -200 40 0 40 0 0 200 0 200 -40 0 -40 0 0 -200z m50 -6
c0 -94 -4 -143 -10 -139 -18 11 -12 285 6 285 2 0 4 -66 4 -146z"/>
<path d="M1450 770 l0 -200 40 0 40 0 0 43 c0 23 6 49 13 57 14 17 42 26 32
10 -4 -6 1 -33 10 -60 l17 -50 45 0 c32 0 44 4 40 13 -3 6 -22 49 -41 95 l-36
84 35 42 c19 24 35 46 35 50 0 4 -21 6 -47 4 -45 -3 -49 -6 -73 -48 l-25 -45
-3 103 -3 102 -39 0 -40 0 0 -200z m48 86 c0 -26 6 -55 18 -74 20 -35 29 -39
38 -17 3 8 13 15 21 15 9 0 13 5 10 10 -3 6 -1 10 5 10 8 0 9 -7 5 -17 -13
-32 -9 -87 5 -78 12 7 12 3 4 -19 -6 -15 -7 -15 -19 0 -18 26 -61 10 -82 -29
l-17 -32 -7 35 c-4 19 -5 38 -3 42 3 4 5 52 5 108 0 60 4 98 10 95 5 -4 8 -25
7 -49z"/>
<path d="M1760 930 c0 -40 0 -40 39 -40 38 0 38 0 38 40 0 40 0 40 -38 40 -39
0 -39 0 -39 -40z"/>
<path d="M2313 953 c-4 -9 1 -30 11 -46 13 -23 14 -33 5 -43 -19 -23 -52 12
-44 45 6 25 6 25 -14 7 l-21 -19 30 -28 c31 -30 38 -33 64 -23 20 8 20 27 0
66 -11 21 -13 33 -5 41 16 16 43 -12 38 -40 -5 -26 5 -30 22 -9 8 10 5 19 -14
40 -27 29 -62 34 -72 9z"/>
<path d="M970 753 c0 -133 16 -176 67 -181 25 -3 39 3 58 24 l25 27 0 -27 c0
-23 4 -26 35 -26 l35 0 0 145 0 145 -40 0 -40 0 0 -94 c0 -71 -4 -97 -15 -106
-12 -10 -18 -10 -30 0 -11 9 -15 35 -15 106 l0 94 -40 0 -40 0 0 -107z m180
-137 c-7 -7 -10 -6 -10 2 0 7 -9 12 -20 12 l-21 0 21 22 c16 17 20 35 20 88 0
105 15 92 18 -16 2 -58 -1 -101 -8 -108z m-120 59 c6 -19 19 -39 28 -44 13 -7
14 -13 6 -21 -17 -17 -49 -8 -48 13 1 9 -1 17 -5 17 -3 0 -6 16 -7 35 -1 45
11 45 26 0z"/>
<path d="M1758 715 l3 -145 37 0 37 0 0 145 0 145 -40 0 -40 0 3 -145z m35
-76 c-4 -4 -6 31 -3 79 l5 87 3 -79 c2 -44 -1 -83 -5 -87z"/>
</g>
</svg>
